<svg id="Layer_1" data-name="Layer 1" xmlns="http://www.w3.org/2000/svg" viewBox="0 0 144 48.8"><defs><style>.cls-1{fill:#f1f2f2;}</style></defs><title>Artboard 2</title><path class="cls-1" d="M6,36.79H.35L13.83,4h4.74l13.26,32.8H26.15L23.05,29H9ZM16,10.06,10.46,24.82H21.63Z"/><path class="cls-1" d="M35.19,4H39.8v32.8H35.19Z"/><path class="cls-1" d="M45.83,4h4.61v32.8H45.83Z"/><path class="cls-1" d="M89,24.51a16.82,16.82,0,0,1-16.58,12.9,17,17,0,1,1-.09-34A16.78,16.78,0,0,1,89,16.44H80.18a8.49,8.49,0,0,0-7.93-5.72c-5.63,0-8.78,4.92-8.78,9.58,0,5,3.37,9.75,8.82,9.75,5.23,0,7.36-4.39,7.89-5.54Z"/><path class="cls-1" d="M93,4h7.35V9.57H93Zm0,8.2h7.35v24.6H93Z"/><path class="cls-1" d="M107.12,17.77h-3.63V12.19h3.63V4h7.36v8.2H118v5.58h-3.55v19h-7.36Z"/><path class="cls-1" d="M127.74,35.55,118.6,12.19h7.85l5,14.27,4.7-14.27H144L131.64,45h-7.81Z"/></svg>