<svg xmlns="http://www.w3.org/2000/svg" xmlns:xlink="http://www.w3.org/1999/xlink" viewBox="0 0 943.67 769.3"><defs><style>.cls-1{fill:none;}.cls-2{clip-path:url(#clip-path);}.cls-3{fill:#f1f2f2;}.cls-4{fill:#414042;}.cls-5{fill:#6d6e71;}.cls-6{fill:#2b2b2b;}.cls-7{fill:#383838;}.cls-8{fill:#a7a9ac;}.cls-9{fill:#58595b;}</style><clipPath id="clip-path"><path id="Path_11" data-name="Path 11" class="cls-1" d="M943.67,769.3H0L511.67,0h432Z"/></clipPath></defs><title>Artboard 4</title><g id="Isolation_Mode" data-name="Isolation Mode"><g class="cls-2"><path id="Path_11-2" data-name="Path 11" class="cls-3" d="M943.67,769.3H0L511.67,0h432Z"/><path class="cls-4" d="M898.5,150.79c0-82.91-133.91-82.91-133.91,0V304.2H898.5Z"/><path class="cls-5" d="M831.55,72.81a21.22,21.22,0,0,0-21.07,18.62q3.27-.9,6.63-1.51a15,15,0,0,1,28.88,0c2.23.41,4.45.91,6.63,1.51A21.23,21.23,0,0,0,831.55,72.81Z"/><path class="cls-6" d="M804.28,95.31V290.48a7.68,7.68,0,0,1-7.68,7.69h-8.51a7.68,7.68,0,0,1-7.68-7.69V108.73A65.43,65.43,0,0,1,804.28,95.31Z"/><path class="cls-5" d="M807.58,92.3V287.47a7.68,7.68,0,0,1-7.68,7.69h-8.51a7.68,7.68,0,0,1-7.68-7.69V105.72A65.43,65.43,0,0,1,807.58,92.3Z"/><path class="cls-7" d="M876.48,104.84V290.48a7.68,7.68,0,0,1-7.68,7.69h-8.5a7.68,7.68,0,0,1-7.68-7.69v-199A65.6,65.6,0,0,1,876.48,104.84Z"/><path class="cls-5" d="M879.39,105.71V287.47a7.69,7.69,0,0,1-7.69,7.69h-8.5a7.68,7.68,0,0,1-7.68-7.69V92.3A65.64,65.64,0,0,1,879.39,105.71Z"/><path class="cls-5" d="M569.46,150.79c0-82.91-133.91-82.91-133.91,0V304.2H569.46Z"/><path class="cls-8" d="M523.57,91.43a21.23,21.23,0,0,0-42.14,0c2.18-.6,4.4-1.1,6.63-1.51a15,15,0,0,1,28.88,0"/><path class="cls-7" d="M539.73,290.84v1.38a1.21,1.21,0,0,1-1.21,1.2H456.43a1.21,1.21,0,0,1-1.21-1.2V226.66c0-2.94,1.08-6.88,2.14-7s1,2.07,1,3.2v65.56a1.21,1.21,0,0,0,1.21,1.21h78.95A1.21,1.21,0,0,1,539.73,290.84Z"/><path class="cls-7" d="M558.54,152.05v77.26a1.92,1.92,0,0,1-1.92,1.92h0a1.92,1.92,0,0,1-1.92-1.92V151.55c0-67.73-104.38-67.73-104.38,0v77.76a1.92,1.92,0,0,1-1.92,1.92h0a1.92,1.92,0,0,1-1.92-1.92V152.05C446.47,79.32,558.54,79.32,558.54,152.05Z"/><path class="cls-8" d="M468.64,211.46h67.72a8.39,8.39,0,0,1,8.39,8.39v66.76a0,0,0,0,1,0,0H460.25a0,0,0,0,1,0,0V219.86A8.39,8.39,0,0,1,468.64,211.46Z"/><rect class="cls-9" x="465.67" y="219.54" width="73.66" height="3.51" rx="1.75"/><path class="cls-4" d="M240.41,569.94c0-82.9-133.91-82.9-133.91,0V723.36H240.41Z"/><path class="cls-8" d="M229.5,571.2c0-72.72-112.08-72.72-112.08,0v40H229.5Z"/><path class="cls-6" d="M112.52,654.3c0,72.72,112.07,72.72,112.07,0v-40H112.52Z"/><rect class="cls-9" x="131.23" y="551.89" width="84.46" height="60.01"/><rect class="cls-8" x="141.81" y="566.93" width="63.3" height="44.97"/><path class="cls-5" d="M117.42,651.24c0,72.72,112.08,72.72,112.08,0v-40H117.42Z"/><path class="cls-5" d="M173.46,492a21.22,21.22,0,0,0-21.07,18.62q3.27-.9,6.63-1.51a15,15,0,0,1,28.88,0c2.23.41,4.45.91,6.63,1.51A21.24,21.24,0,0,0,173.46,492Z"/><path class="cls-5" d="M188.15,703.79a15,15,0,0,1-29.38,0,58.61,58.61,0,0,1-6.51-1.93,21.23,21.23,0,0,0,42.39,0A58.45,58.45,0,0,1,188.15,703.79Z"/><path class="cls-9" d="M898.5,569.94c0-82.9-133.91-82.9-133.91,0V723.36H898.5Z"/><path class="cls-8" d="M831.55,492a21.22,21.22,0,0,0-21.07,18.62q3.27-.9,6.63-1.51a15,15,0,0,1,28.88,0c2.23.41,4.45.91,6.63,1.51A21.23,21.23,0,0,0,831.55,492Z"/><path class="cls-7" d="M804.28,514.47V709.64a7.67,7.67,0,0,1-7.68,7.68h-8.51a7.68,7.68,0,0,1-7.68-7.68V527.88A65.56,65.56,0,0,1,804.28,514.47Z"/><path class="cls-8" d="M807.58,511.46V706.63a7.68,7.68,0,0,1-7.68,7.68h-8.51a7.68,7.68,0,0,1-7.68-7.68V524.87A65.56,65.56,0,0,1,807.58,511.46Z"/><path class="cls-7" d="M876.48,524V709.64a7.68,7.68,0,0,1-7.68,7.68h-8.5a7.68,7.68,0,0,1-7.68-7.68v-199A65.6,65.6,0,0,1,876.48,524Z"/><path class="cls-8" d="M879.39,524.87V706.63a7.68,7.68,0,0,1-7.69,7.68h-8.5a7.68,7.68,0,0,1-7.68-7.68V511.46A65.64,65.64,0,0,1,879.39,524.87Z"/><path class="cls-8" d="M569.46,569.94c0-82.9-133.91-82.9-133.91,0V723.36H569.46Z"/><path class="cls-9" d="M523.57,510.59a21.23,21.23,0,0,0-42.14,0c2.18-.6,4.4-1.1,6.63-1.51a15,15,0,0,1,28.88,0"/><path class="cls-7" d="M539.73,710v1.38a1.21,1.21,0,0,1-1.21,1.2H456.43a1.21,1.21,0,0,1-1.21-1.2V645.81c0-2.93,1.08-6.87,2.14-7s1,2.07,1,3.2v65.56a1.21,1.21,0,0,0,1.21,1.21h78.95A1.21,1.21,0,0,1,539.73,710Z"/><path class="cls-7" d="M558.54,571.2v77.27a1.92,1.92,0,0,1-1.92,1.92h0a1.92,1.92,0,0,1-1.92-1.92V570.7c0-67.72-104.38-67.72-104.38,0v77.77a1.92,1.92,0,0,1-1.92,1.92h0a1.92,1.92,0,0,1-1.92-1.92V571.2C446.47,498.48,558.54,498.48,558.54,571.2Z"/><path class="cls-9" d="M468.64,630.62h67.72a8.39,8.39,0,0,1,8.39,8.39v66.76a0,0,0,0,1,0,0H460.25a0,0,0,0,1,0,0V639A8.39,8.39,0,0,1,468.64,630.62Z"/><rect class="cls-8" x="465.67" y="638.7" width="73.66" height="3.51" rx="1.75"/></g></g></svg>