<svg xmlns="http://www.w3.org/2000/svg" xmlns:xlink="http://www.w3.org/1999/xlink" viewBox="0 0 936 1194.86"><defs><style>.cls-1{fill:none;}.cls-2{clip-path:url(#clip-path);}.cls-3{fill:#f1f2f2;}.cls-4{fill:#414042;}.cls-5{fill:#6d6e71;}.cls-6{fill:#2b2b2b;}.cls-7{fill:#383838;}.cls-8{fill:#a7a9ac;}.cls-9{fill:#58595b;}</style><clipPath id="clip-path"><path id="Path_8" data-name="Path 8" class="cls-1" d="M0,0H936V330.68L432,1193.86H0Z"/></clipPath></defs><title>Artboard 3</title><g id="Isolation_Mode" data-name="Isolation Mode"><g class="cls-2"><path id="Path_8-2" data-name="Path 8" class="cls-3" d="M0,0H936V330.68L432,1193.86H0Z"/><path class="cls-4" d="M864,140.55c0-82.9-133.91-82.9-133.91,0V294H864Z"/><path class="cls-5" d="M797.05,62.58A21.22,21.22,0,0,0,776,81.2c2.17-.6,4.39-1.11,6.62-1.51a15,15,0,0,1,28.88,0c2.24.4,4.45.91,6.64,1.51A21.24,21.24,0,0,0,797.05,62.58Z"/><path class="cls-6" d="M769.78,85.08V280.25a7.68,7.68,0,0,1-7.68,7.68h-8.51a7.68,7.68,0,0,1-7.68-7.68V98.49A65.56,65.56,0,0,1,769.78,85.08Z"/><path class="cls-5" d="M773.08,82.07V277.24a7.68,7.68,0,0,1-7.68,7.68h-8.51a7.68,7.68,0,0,1-7.68-7.68V95.48A65.47,65.47,0,0,1,773.08,82.07Z"/><path class="cls-7" d="M842,94.61V280.25a7.68,7.68,0,0,1-7.68,7.68h-8.5a7.68,7.68,0,0,1-7.68-7.68V81.2A65.6,65.6,0,0,1,842,94.61Z"/><path class="cls-5" d="M844.88,95.48V277.24a7.68,7.68,0,0,1-7.68,7.68h-8.5a7.68,7.68,0,0,1-7.68-7.68V82.07A65.6,65.6,0,0,1,844.88,95.48Z"/><path class="cls-5" d="M535,140.55c0-82.9-133.9-82.9-133.9,0V294H535Z"/><path class="cls-8" d="M489.07,81.2a21.23,21.23,0,0,0-42.14,0c2.18-.6,4.39-1.11,6.63-1.51a15,15,0,0,1,28.88,0"/><path class="cls-7" d="M505.23,280.61V282a1.21,1.21,0,0,1-1.21,1.21h-82.1a1.21,1.21,0,0,1-1.21-1.21V216.42c0-2.93,1.08-6.87,2.15-7s1,2.07,1,3.2v65.56a1.21,1.21,0,0,0,1.21,1.21H504A1.21,1.21,0,0,1,505.23,280.61Z"/><path class="cls-7" d="M524,141.81v77.26a1.92,1.92,0,0,1-1.92,1.93h0a1.92,1.92,0,0,1-1.92-1.93V141.31c0-67.73-104.38-67.73-104.38,0v77.76a1.92,1.92,0,0,1-1.93,1.93h0a1.92,1.92,0,0,1-1.92-1.93V141.81C412,69.09,524,69.09,524,141.81Z"/><path class="cls-8" d="M434.14,201.23h67.72a8.39,8.39,0,0,1,8.39,8.39v66.76a0,0,0,0,1,0,0H425.74a0,0,0,0,1,0,0V209.63A8.39,8.39,0,0,1,434.14,201.23Z"/><rect class="cls-9" x="431.17" y="209.3" width="73.66" height="3.51" rx="1.75"/><path class="cls-8" d="M205.91,140.55c0-82.9-133.91-82.9-133.91,0V294H205.91Z"/><path class="cls-7" d="M195,141.81c0-72.72-112.07-72.72-112.07,0v40H195Z"/><rect class="cls-9" x="96.73" y="122.5" width="84.46" height="60.01"/><rect class="cls-8" x="107.31" y="137.54" width="63.3" height="44.97"/><path class="cls-7" d="M78,224.91c0,72.72,112.08,72.72,112.08,0v-40H78Z"/><path class="cls-9" d="M82.92,221.85c0,72.72,112.07,72.72,112.07,0v-40H82.92Z"/><path class="cls-9" d="M139,62.58A21.22,21.22,0,0,0,117.89,81.2c2.17-.6,4.39-1.11,6.62-1.51a15,15,0,0,1,28.88,0c2.24.4,4.45.91,6.63,1.51A21.22,21.22,0,0,0,139,62.58Z"/><path class="cls-9" d="M153.64,274.4a15,15,0,0,1-29.37,0,60.15,60.15,0,0,1-6.51-1.93,21.23,21.23,0,0,0,42.39,0A60.83,60.83,0,0,1,153.64,274.4Z"/><path class="cls-4" d="M205.91,559.71c0-82.9-133.91-82.9-133.91,0V713.12H205.91Z"/><path class="cls-8" d="M195,561c0-72.72-112.07-72.72-112.07,0v40H195Z"/><path class="cls-6" d="M78,644.06c0,72.73,112.08,72.73,112.08,0v-40H78Z"/><rect class="cls-9" x="96.73" y="541.66" width="84.46" height="60.01"/><rect class="cls-8" x="107.31" y="556.7" width="63.3" height="44.97"/><path class="cls-5" d="M82.92,641c0,72.72,112.07,72.72,112.07,0V601H82.92Z"/><path class="cls-5" d="M139,481.74a21.22,21.22,0,0,0-21.06,18.62c2.17-.6,4.39-1.11,6.62-1.52a15,15,0,0,1,28.88,0q3.36.62,6.63,1.52A21.22,21.22,0,0,0,139,481.74Z"/><path class="cls-5" d="M153.64,693.56a15,15,0,0,1-29.37,0,60.15,60.15,0,0,1-6.51-1.93,21.23,21.23,0,0,0,42.39,0A60.83,60.83,0,0,1,153.64,693.56Z"/><path class="cls-9" d="M864,559.71c0-82.9-133.91-82.9-133.91,0V713.12H864Z"/><path class="cls-8" d="M797.05,481.74A21.22,21.22,0,0,0,776,500.36c2.17-.6,4.39-1.11,6.62-1.52a15,15,0,0,1,28.88,0q3.36.62,6.64,1.52A21.24,21.24,0,0,0,797.05,481.74Z"/><path class="cls-7" d="M769.78,504.24V699.41a7.68,7.68,0,0,1-7.68,7.68h-8.51a7.68,7.68,0,0,1-7.68-7.68V517.65A65.56,65.56,0,0,1,769.78,504.24Z"/><path class="cls-8" d="M773.08,501.23V696.4a7.68,7.68,0,0,1-7.68,7.68h-8.51a7.68,7.68,0,0,1-7.68-7.68V514.64A65.47,65.47,0,0,1,773.08,501.23Z"/><path class="cls-7" d="M842,513.76V699.41a7.68,7.68,0,0,1-7.68,7.68h-8.5a7.68,7.68,0,0,1-7.68-7.68v-199A65.72,65.72,0,0,1,842,513.76Z"/><path class="cls-8" d="M844.88,514.63V696.4a7.68,7.68,0,0,1-7.68,7.68h-8.5A7.68,7.68,0,0,1,821,696.4V501.23A65.72,65.72,0,0,1,844.88,514.63Z"/><path class="cls-8" d="M535,559.71c0-82.9-133.9-82.9-133.9,0V713.12H535Z"/><path class="cls-9" d="M489.07,500.36a21.23,21.23,0,0,0-42.14,0q3.27-.9,6.63-1.52a15,15,0,0,1,28.88,0"/><path class="cls-7" d="M505.23,699.77v1.37a1.21,1.21,0,0,1-1.21,1.21h-82.1a1.21,1.21,0,0,1-1.21-1.21V635.58c0-2.93,1.08-6.87,2.15-7s1,2.08,1,3.21v65.56a1.21,1.21,0,0,0,1.21,1.21H504A1.21,1.21,0,0,1,505.23,699.77Z"/><path class="cls-7" d="M524,561v77.26a1.93,1.93,0,0,1-1.92,1.93h0a1.93,1.93,0,0,1-1.92-1.93V560.47c0-67.73-104.38-67.73-104.38,0v77.76a1.93,1.93,0,0,1-1.93,1.93h0a1.93,1.93,0,0,1-1.92-1.93V561C412,488.25,524,488.25,524,561Z"/><path class="cls-9" d="M434.14,620.39h67.72a8.39,8.39,0,0,1,8.39,8.39v66.76a0,0,0,0,1,0,0H425.74a0,0,0,0,1,0,0V628.78A8.39,8.39,0,0,1,434.14,620.39Z"/><rect class="cls-8" x="431.17" y="628.46" width="73.66" height="3.51" rx="1.75"/><path class="cls-4" d="M535,978.87c0-82.9-133.91-82.9-133.91,0v153.41H535Z"/><path class="cls-5" d="M489.07,919.52a21.23,21.23,0,0,0-42.14,0c2.18-.6,4.4-1.11,6.63-1.52a15,15,0,0,1,28.88,0"/><path class="cls-6" d="M505.23,1118.93v1.37a1.21,1.21,0,0,1-1.21,1.21h-82.1a1.21,1.21,0,0,1-1.2-1.21v-65.56c0-2.93,1.08-6.87,2.14-7s1,2.08,1,3.21v65.56a1.21,1.21,0,0,0,1.21,1.21H504A1.21,1.21,0,0,1,505.23,1118.93Z"/><path class="cls-8" d="M524,980.13v77.26a1.92,1.92,0,0,1-1.92,1.92h0a1.92,1.92,0,0,1-1.92-1.92V979.63c0-67.73-104.38-67.73-104.38,0v77.76a1.92,1.92,0,0,1-1.92,1.92h0a1.93,1.93,0,0,1-1.93-1.92V980.13C412,907.4,524,907.4,524,980.13Z"/><path class="cls-5" d="M434.14,1039.55h67.72a8.39,8.39,0,0,1,8.39,8.39v66.76a0,0,0,0,1,0,0H425.75a0,0,0,0,1,0,0v-66.76A8.39,8.39,0,0,1,434.14,1039.55Z"/><rect class="cls-4" x="431.17" y="1047.62" width="73.66" height="3.51" rx="1.75"/><path class="cls-5" d="M205.91,978.87C205.91,896,72,896,72,978.87v153.41H205.91Z"/><path class="cls-7" d="M195,980.13c0-72.72-112.07-72.72-112.07,0v40H195Z"/><rect class="cls-9" x="96.73" y="960.82" width="84.46" height="60.01"/><rect class="cls-8" x="107.31" y="975.86" width="63.3" height="44.97"/><path class="cls-7" d="M78,1063.22c0,72.73,112.08,72.73,112.08,0v-40H78Z"/><path class="cls-8" d="M82.92,1060.17c0,72.72,112.07,72.72,112.07,0v-40H82.92Z"/><path class="cls-8" d="M139,900.89a21.23,21.23,0,0,0-21.07,18.63c2.17-.6,4.39-1.11,6.62-1.52a15,15,0,0,1,28.88,0q3.36.62,6.63,1.52A21.23,21.23,0,0,0,139,900.89Z"/><path class="cls-8" d="M153.64,1112.71a15,15,0,0,1-29.37,0,57.94,57.94,0,0,1-6.51-1.92,21.23,21.23,0,0,0,42.39,0A57.94,57.94,0,0,1,153.64,1112.71Z"/></g></g></svg>